<svg xmlns="http://www.w3.org/2000/svg" xmlns:xlink="http://www.w3.org/1999/xlink" width="1080" zoomAndPan="magnify" viewBox="0 0 810 809.999993" height="1080" preserveAspectRatio="xMidYMid meet" version="1.0"><defs><clipPath id="09ecb308d8"><path d="M 329 39 L 810 39 L 810 654.625 L 329 654.625 Z M 329 39 " clip-rule="nonzero"/></clipPath><clipPath id="908dda5ed7"><path d="M 48.976562 213.519531 L 374.472656 213.519531 L 374.472656 773.015625 L 48.976562 773.015625 Z M 48.976562 213.519531 " clip-rule="nonzero"/></clipPath></defs><g clip-path="url(#09ecb308d8)"><path fill="#0e0d0d" d="M 520.363281 81.074219 C 525.980469 73.285156 530.15625 65.074219 534.753906 57.144531 C 538.046875 51.535156 542.226562 46.574219 546.726562 41.933594 C 547.980469 40.636719 549.605469 39.476562 551.136719 39.105469 C 552.160156 38.875 553.828125 39.292969 555.175781 39.753906 C 557.542969 40.496094 559.910156 41.378906 561.859375 42.863281 C 573.09375 51.257812 585.71875 57.46875 597.136719 65.539062 C 610.921875 75.230469 624.382812 85.339844 636.078125 97.628906 C 644.621094 106.582031 653.996094 114.695312 662.90625 123.273438 C 677.527344 137.371094 693.078125 150.496094 707.28125 165.105469 C 710.113281 168.027344 712.480469 171.179688 714.613281 174.5625 C 715.402344 175.816406 715.125 177.113281 714.523438 178.320312 C 713.546875 180.359375 712.109375 182.078125 710.578125 183.746094 C 703.011719 191.816406 697.164062 200.996094 693.03125 211.292969 C 692.519531 212.589844 692.054688 213.933594 691.035156 214.910156 C 690.015625 215.882812 690.246094 216.347656 691.265625 217.136719 C 708.859375 230.027344 724.6875 244.914062 739.492188 260.820312 C 752.90625 275.195312 767.855469 287.714844 783.589844 299.402344 C 790.367188 304.457031 796.679688 309.976562 802.480469 316.144531 C 804.613281 318.414062 806.703125 320.6875 807.355469 323.886719 C 807.445312 324.257812 807.585938 324.535156 807.957031 324.816406 C 810 326.34375 810.136719 327.179688 808.699219 329.21875 C 808.003906 330.148438 807.214844 330.984375 806.378906 331.816406 C 774.957031 363.953125 742.140625 394.605469 710.667969 426.699219 C 672.609375 465.511719 632.738281 502.472656 593.886719 540.453125 C 564.875 568.832031 535.125 596.472656 506.671875 625.457031 C 499.289062 632.96875 492.1875 640.710938 484.578125 647.945312 C 482.765625 649.664062 480.957031 651.332031 478.820312 652.628906 C 476.871094 653.789062 474.828125 654.578125 472.507812 654.625 C 470.605469 654.625 469.261719 654.347656 469.769531 651.980469 C 469.863281 651.472656 469.816406 650.914062 469.214844 650.589844 C 466.984375 649.382812 465.964844 647.160156 464.617188 645.210938 C 459.882812 638.488281 454.128906 632.644531 448.558594 626.613281 C 430.085938 606.675781 412.261719 586.039062 393 566.839844 C 377.402344 551.304688 361.945312 535.582031 344.773438 521.671875 C 342.3125 519.675781 339.804688 517.730469 337.207031 515.921875 C 333.863281 513.601562 331.496094 510.542969 329.640625 507.015625 C 328.851562 505.488281 329.039062 503.910156 329.734375 502.332031 C 332.566406 496.257812 336.558594 490.972656 340.59375 485.683594 C 341.105469 484.988281 341.617188 484.339844 342.171875 483.691406 C 343.890625 481.695312 345.050781 479.84375 344.773438 476.828125 C 344.402344 472.933594 346.210938 469.128906 347.417969 465.421875 C 351.828125 451.925781 356.515625 438.570312 362.226562 425.585938 C 364.453125 420.53125 364.359375 415.523438 363.664062 410.421875 C 363.199219 406.894531 362.734375 403.371094 362.828125 399.800781 C 363.246094 385.148438 363.015625 370.445312 363.847656 355.792969 C 364.871094 337.148438 365.707031 318.460938 367.421875 299.867188 C 368.675781 286.324219 369.328125 272.738281 370.394531 259.195312 C 371.785156 241.203125 373.085938 223.164062 374.851562 205.171875 C 376.148438 191.863281 377.308594 178.550781 378.839844 165.289062 C 380.605469 149.800781 382.925781 134.359375 385.433594 118.960938 C 387.105469 108.574219 388.449219 98.1875 389.84375 87.753906 C 390.351562 84.042969 391.792969 80.609375 392.671875 77.039062 C 392.859375 76.207031 393.554688 75.835938 394.34375 75.601562 C 415.09375 69.945312 436.074219 66.652344 457.609375 69.203125 C 464.433594 69.992188 471.117188 71.707031 477.941406 72.773438 C 486.898438 74.210938 495.808594 76.253906 505 76.253906 C 508.945312 76.253906 512.796875 77.363281 516.605469 78.292969 C 518.273438 78.570312 519.480469 79.636719 520.363281 81.074219 Z M 462.113281 361.589844 C 456.632812 367.152344 451.296875 372.859375 446.332031 378.886719 C 438.207031 388.8125 430.363281 398.964844 421.914062 408.613281 C 411.472656 420.53125 400.75 432.171875 389.285156 443.160156 C 380.835938 451.277344 374.433594 461.246094 365.890625 469.175781 C 353.730469 480.445312 345.238281 494.867188 333.121094 505.996094 C 340.457031 507.386719 346.535156 511.515625 352.292969 516.339844 C 372.855469 533.636719 391.652344 552.742188 410.359375 571.988281 C 426.511719 588.589844 442.664062 605.238281 459 621.699219 C 465.035156 627.773438 470.929688 633.988281 476.59375 640.757812 C 479.101562 638.207031 481.511719 635.75 483.925781 633.246094 C 509.550781 606.8125 536.097656 581.355469 563.066406 556.3125 C 569.332031 550.46875 575.832031 544.8125 581.773438 538.691406 C 581.863281 538.550781 582.097656 538.320312 582.097656 538.273438 C 581.863281 538.042969 581.632812 538.132812 581.402344 538.273438 C 575.042969 539.941406 568.542969 541.054688 561.953125 540.683594 C 554.15625 540.265625 546.496094 538.875 538.929688 536.882812 C 525.515625 533.359375 514.050781 526.078125 503.003906 518.101562 C 489.171875 508.082031 478.265625 495.332031 468.84375 481.28125 C 461.414062 470.242188 455.519531 458.511719 452.550781 445.433594 C 447.816406 424.332031 449.949219 403.511719 455.101562 382.828125 C 456.914062 375.640625 459.605469 368.730469 462.484375 361.914062 C 462.808594 361.683594 462.945312 361.402344 462.714844 361.03125 C 462.53125 361.265625 462.34375 361.449219 462.113281 361.589844 Z M 564.550781 533.125 C 571.375 533.125 577.964844 532.058594 584.417969 530.109375 C 588.921875 528.765625 593.609375 527.46875 597.089844 524.175781 C 610.828125 511.238281 624.476562 498.207031 638.074219 485.175781 C 649.445312 474.277344 660.820312 463.285156 672.144531 452.34375 C 672.65625 451.832031 674.046875 451.507812 672.980469 450.253906 C 670.984375 447.9375 671.632812 445.527344 672.980469 443.160156 C 678.085938 434.304688 681.101562 424.65625 683.421875 414.871094 C 685.699219 405.320312 688.066406 395.628906 686.347656 385.609375 C 686.113281 384.171875 686.070312 382.6875 685.976562 381.207031 C 685.09375 370.863281 683.144531 360.753906 678.6875 351.246094 C 673.675781 340.582031 667.410156 330.703125 660.167969 321.382812 C 651.859375 310.761719 642.4375 301.304688 631.484375 293.558594 C 615.46875 282.289062 597.691406 276.167969 577.917969 275.425781 C 567.894531 275.054688 558.378906 276.074219 549.09375 279.738281 C 547.472656 280.390625 545.613281 280.804688 544.359375 282.058594 C 538.464844 287.996094 531.644531 292.816406 525.65625 298.707031 C 510.382812 313.824219 495.71875 329.546875 479.84375 344.058594 C 476.734375 346.933594 474.226562 350.179688 472.183594 353.84375 C 469.121094 359.316406 466.476562 364.929688 464.246094 370.816406 C 459.375 383.800781 456.820312 397.34375 455.382812 411.117188 C 454.175781 422.429688 454.453125 433.609375 457.097656 444.691406 C 461.925781 464.769531 472.925781 481.511719 486.898438 496.257812 C 496.691406 506.554688 508.761719 514.160156 520.96875 521.347656 C 534.335938 529.230469 549.1875 532.335938 564.550781 533.125 Z M 553.226562 274.222656 C 553.875 274.40625 554.480469 274.175781 555.128906 273.988281 C 561.628906 272.226562 568.265625 271.300781 574.949219 270.558594 C 584.789062 269.445312 594.257812 271.625 603.820312 273.664062 C 618.953125 276.910156 632.132812 283.679688 644.109375 293.464844 C 654.089844 301.628906 662.117188 311.460938 670.332031 321.246094 C 678.269531 330.703125 683.746094 341.601562 688.527344 352.824219 C 690.804688 358.15625 692.800781 363.582031 693.355469 369.425781 C 693.632812 372.488281 693.402344 375.59375 694.003906 378.65625 C 694.839844 383.246094 694.703125 387.882812 694.144531 392.472656 C 694.003906 393.632812 693.820312 394.792969 694.191406 395.90625 C 695.210938 398.964844 694.839844 401.980469 694.191406 405.042969 C 693.632812 407.683594 693.308594 410.375 692.566406 412.972656 C 691.359375 417.332031 690.570312 421.828125 689.085938 426.140625 C 687.601562 430.546875 686.441406 435.089844 685.140625 439.589844 C 725.199219 404.160156 762.792969 366.226562 800.902344 328.617188 C 795.890625 325.324219 792.316406 320.917969 788.230469 317.023438 C 781.777344 310.902344 775.140625 305.011719 768.085938 299.585938 C 759.824219 293.1875 752.027344 286.277344 744.597656 278.953125 C 738.148438 272.597656 732.34375 265.640625 726.125 259.058594 C 712.246094 244.402344 697.160156 231.046875 681.335938 218.433594 C 670.007812 209.390625 659.195312 199.699219 648.65625 189.683594 C 647.960938 190.609375 647.359375 191.582031 646.613281 192.511719 C 641.046875 199.558594 634.128906 205.21875 627.121094 210.550781 C 615.421875 219.40625 603.957031 228.542969 592.632812 237.910156 C 590.960938 239.300781 589.199219 240.507812 588.269531 242.59375 C 587.851562 243.523438 586.925781 244.171875 585.902344 244.308594 C 584.742188 244.496094 583.953125 245.191406 583.164062 245.886719 C 574.300781 253.398438 565.621094 261.050781 557.589844 269.398438 C 556.152344 271.066406 554.710938 272.644531 553.226562 274.222656 Z M 657.429688 190.425781 C 656.222656 186.621094 655.15625 183.097656 656.964844 179.480469 C 657.335938 178.691406 656.917969 177.949219 656.6875 177.253906 C 655.109375 172.152344 653.390625 167.144531 651.953125 161.996094 C 650.652344 157.453125 651.257812 152.90625 652.277344 148.132812 C 652.554688 148.503906 652.695312 148.640625 652.742188 148.78125 C 654.96875 158.148438 657.617188 167.421875 660.773438 176.511719 C 661.050781 177.394531 661.328125 178.179688 662.117188 178.875 C 665.089844 181.382812 664.855469 184.765625 664.347656 188.058594 C 663.929688 190.796875 661.792969 191.769531 658.496094 191.535156 C 666.480469 197.796875 673.863281 203.640625 681.425781 209.578125 C 682.914062 205.589844 685.140625 202.433594 687.785156 199.558594 C 693.261719 193.671875 698.136719 187.269531 703.058594 180.964844 C 704.21875 179.527344 706.304688 178.089844 706.304688 176.652344 C 706.304688 175.027344 703.800781 174.054688 702.453125 172.710938 C 691.730469 161.535156 680.265625 151.191406 668.800781 140.804688 C 656.039062 129.257812 642.4375 118.542969 630.554688 106.023438 C 616.445312 91.136719 600.386719 78.664062 583.304688 67.347656 C 572.210938 60.019531 561.488281 52.183594 551.554688 43.140625 C 550.671875 45.96875 549.835938 48.9375 548.539062 51.71875 C 543.386719 62.570312 537.121094 72.726562 531.039062 83.023438 C 530.667969 83.671875 530.066406 84.273438 530.109375 85.109375 C 530.25 87.058594 529.367188 88.679688 528.53125 90.347656 C 523.84375 99.996094 518.507812 109.316406 513.03125 118.542969 C 505.882812 130.648438 500.171875 143.492188 493.859375 156.015625 C 490.65625 162.320312 487.222656 168.535156 483.878906 174.796875 C 484.625 175.167969 485.085938 174.890625 485.597656 174.75 C 499.847656 170.390625 514.609375 169.742188 529.367188 169.371094 C 537.863281 169.136719 546.265625 170.714844 554.617188 172.292969 C 569.703125 175.074219 583.023438 181.472656 594.628906 191.398438 C 601.589844 197.332031 607.394531 204.289062 611.199219 212.960938 C 615.238281 209.761719 619.136719 206.609375 623.128906 203.59375 C 631.390625 197.332031 639.09375 190.144531 649.492188 187.269531 C 651.023438 186.851562 652.09375 186.992188 653.4375 187.550781 C 654.878906 188.105469 655.527344 189.820312 657.429688 190.425781 Z M 554.339844 259.472656 C 557.496094 256.96875 560.558594 254.746094 563.4375 252.285156 C 569.378906 247.230469 575.550781 242.457031 580.890625 236.75 C 582.886719 234.617188 585.53125 233.132812 587.992188 231.464844 C 593.65625 227.570312 598.761719 222.886719 604.097656 218.574219 C 604.839844 217.96875 605.121094 217.414062 604.792969 216.394531 C 602.796875 210.410156 600.058594 204.847656 595.511719 200.300781 C 578.847656 183.792969 558.332031 176.652344 535.402344 175.398438 C 530.066406 175.121094 524.773438 176.046875 519.433594 176.234375 C 506.625 176.652344 494.183594 179.203125 481.699219 181.707031 C 480.214844 182.03125 479.425781 182.726562 478.820312 183.976562 C 477.105469 187.503906 475.199219 190.980469 473.667969 194.597656 C 469.304688 204.800781 464.988281 215.09375 459.652344 224.832031 C 453.152344 236.703125 447.445312 248.855469 442.386719 261.421875 C 431.339844 288.875 421.21875 316.652344 409.199219 343.6875 C 408.6875 344.800781 408.871094 345.730469 409.199219 346.796875 C 411.566406 354.078125 415.929688 360.105469 420.988281 365.714844 C 425.351562 370.539062 430.828125 372.394531 437.1875 372.300781 C 438.253906 372.300781 439.042969 371.976562 439.738281 371.097656 C 445.914062 363.535156 452.550781 356.441406 459.417969 349.53125 C 470.511719 338.355469 482.300781 327.828125 493.210938 316.421875 C 495.902344 313.59375 498.546875 310.765625 501.285156 307.84375 C 500.171875 307.238281 499.199219 306.820312 498.457031 306.21875 C 497.015625 305.058594 496.042969 305.339844 494.882812 306.730469 C 492.097656 309.976562 488.800781 312.664062 485.273438 315.078125 C 474.179688 322.683594 462.34375 315.585938 458.816406 307.425781 C 455.566406 299.867188 455.566406 292.121094 457.144531 284.285156 C 457.46875 282.707031 457.285156 281.78125 455.890625 280.851562 C 453.292969 279.183594 450.832031 277.28125 448.464844 275.335938 C 446.746094 273.941406 446.097656 272.089844 447.121094 269.953125 C 448.046875 268.054688 450.136719 267.21875 452.503906 267.867188 C 453.617188 268.191406 454.683594 268.703125 455.613281 269.351562 C 457.285156 270.464844 458.816406 271.71875 460.394531 272.875 C 461.042969 272.503906 461.042969 271.902344 461.230469 271.4375 C 465.082031 261.839844 469.445312 252.472656 474.785156 243.613281 C 475.988281 241.621094 476.128906 240.460938 474.132812 238.929688 C 471.8125 237.167969 469.863281 234.941406 468.84375 232.019531 C 468.46875 230.90625 468.332031 229.839844 469.214844 229.007812 C 470.003906 228.21875 471.070312 228.359375 472.042969 228.636719 C 474.550781 229.332031 476.824219 230.492188 478.820312 232.066406 C 480.492188 233.414062 481.421875 233.414062 482.71875 231.464844 C 484.902344 228.171875 487.59375 225.25 490.84375 222.976562 C 492.421875 221.867188 494.136719 220.984375 496.089844 220.707031 C 499.152344 220.289062 500.777344 222.375 499.707031 225.296875 C 499.105469 226.921875 497.898438 228.171875 496.644531 229.285156 C 493.90625 231.695312 491.539062 234.433594 489.265625 237.261719 C 488.242188 238.558594 488.199219 239.253906 489.589844 240.367188 C 497.386719 246.441406 505.1875 252.566406 512.84375 258.777344 C 514.46875 260.125 515.210938 259.800781 516.558594 258.5 C 522.777344 252.238281 529.925781 247.554688 538.558594 245.375 C 545.476562 243.660156 551.878906 246.953125 553.96875 253.121094 C 554.664062 255.070312 554.527344 257.109375 554.339844 259.472656 Z M 516.417969 88.402344 C 514.746094 88.261719 513.449219 88.214844 512.148438 87.984375 C 505.371094 86.6875 498.917969 84.507812 492.328125 82.605469 C 478.589844 78.617188 464.757812 74.675781 450.367188 73.746094 C 441.457031 73.144531 432.636719 73.839844 423.773438 74.628906 C 416.160156 75.324219 408.734375 77.503906 401.027344 77.132812 C 399.3125 77.039062 397.6875 77.644531 396.015625 78.015625 C 394.808594 78.292969 394.4375 78.757812 394.53125 80.054688 C 394.761719 82.835938 394.714844 85.621094 394.714844 88.402344 C 394.714844 95.820312 393.554688 103.148438 392.8125 110.523438 C 392.023438 118.359375 391.652344 126.195312 391.28125 134.078125 C 390.261719 154.207031 387.847656 174.238281 385.664062 194.273438 C 385.0625 199.699219 384.644531 205.125 384.132812 210.875 C 386.359375 209.207031 388.21875 207.722656 390.167969 206.421875 C 400.054688 199.929688 411.054688 196.636719 422.703125 195.433594 C 430.964844 194.597656 438.8125 195.710938 445.960938 200.535156 C 448.882812 202.480469 451.484375 204.523438 452.96875 208.277344 C 453.851562 206.46875 454.453125 205.125 455.054688 203.824219 C 458.210938 196.730469 460.8125 189.355469 464.433594 182.449219 C 474.132812 164.082031 484.066406 145.859375 493.117188 127.214844 C 497.667969 117.847656 502.585938 108.667969 508.992188 100.367188 C 511.824219 96.796875 513.867188 92.621094 516.417969 88.402344 Z M 420.753906 280.992188 C 419.410156 280.390625 418.851562 280.898438 418.296875 281.964844 C 416.390625 285.722656 413.976562 289.105469 410.40625 291.519531 C 405.671875 294.671875 399.636719 293.375 397.035156 288.457031 C 395.597656 285.722656 394.019531 282.894531 393.789062 279.832031 C 393.460938 275.472656 391.976562 272.644531 387.519531 271.390625 C 385.527344 270.835938 385.617188 268.84375 387.476562 267.773438 C 388.125 267.40625 388.914062 267.265625 389.65625 266.988281 C 390.910156 266.523438 392.71875 267.636719 393.507812 266.335938 C 394.160156 265.226562 394.019531 263.648438 394.25 262.257812 C 394.34375 261.652344 394.4375 261.050781 394.621094 260.449219 C 394.855469 259.472656 394.578125 259.058594 393.507812 258.917969 C 391.746094 258.6875 390.027344 258.316406 388.308594 257.898438 C 387.566406 257.710938 386.824219 257.15625 386.824219 256.320312 C 386.824219 255.347656 387.566406 254.835938 388.449219 254.652344 C 389.886719 254.375 391.328125 253.957031 392.8125 254.003906 C 395.550781 254.046875 396.851562 252.84375 397.546875 250.199219 C 398.382812 246.90625 400.007812 243.894531 402.1875 241.203125 C 402.839844 240.414062 403.765625 239.300781 404.878906 239.949219 C 406.179688 240.691406 405.253906 241.898438 404.835938 242.828125 C 403.582031 245.792969 402.140625 248.714844 401.074219 251.777344 C 400.609375 253.167969 400.933594 253.492188 402.328125 253.398438 C 408.59375 253.121094 414.8125 252.84375 421.078125 252.65625 C 422.613281 252.609375 423.863281 252.285156 425.070312 251.265625 C 427.347656 249.320312 429.992188 248.25 432.960938 249.550781 C 434.078125 250.015625 434.121094 249.273438 434.355469 248.714844 C 439.601562 236.007812 446.003906 223.90625 451.574219 211.339844 C 452.179688 209.949219 451.714844 209.34375 450.601562 208.878906 C 449.253906 208.371094 447.769531 208.09375 446.46875 207.441406 C 435.5625 201.644531 424.097656 201.183594 412.261719 203.78125 C 402.746094 205.867188 394.160156 209.761719 386.730469 216.160156 C 384.410156 218.15625 383.15625 220.429688 382.972656 223.675781 C 381.8125 240.785156 380.28125 257.851562 379.121094 274.964844 C 377.632812 296.015625 375.5 316.976562 374.339844 338.03125 C 374.199219 340.441406 374.617188 342.574219 375.824219 344.664062 C 378.886719 349.902344 383.574219 352.871094 389.191406 354.726562 C 390.910156 355.328125 391.652344 354.957031 392.300781 353.195312 C 399.402344 334.785156 406.597656 316.421875 413.839844 298.058594 C 416.066406 292.351562 418.433594 286.695312 420.753906 280.992188 Z M 358.417969 463.425781 C 383.4375 434.210938 409.570312 406.015625 435.144531 377.078125 C 419.964844 374.15625 412.074219 363.863281 406.132812 351.109375 C 389.933594 388.671875 372.855469 425.445312 358.417969 463.425781 Z M 489.730469 291.007812 C 490.65625 291.007812 490.84375 290.21875 491.214844 289.710938 C 496.738281 282.570312 502.167969 275.378906 507.738281 268.238281 C 508.574219 267.171875 508.527344 266.707031 507.460938 265.921875 C 499.800781 259.890625 492.234375 253.816406 484.625 247.742188 C 483.695312 247 483.183594 246.859375 482.582031 248.066406 C 477.660156 257.386719 472.878906 266.800781 469.304688 276.773438 C 468.886719 277.976562 469.027344 278.535156 470.140625 279.136719 C 476.453125 282.429688 482.300781 286.464844 488.289062 290.265625 C 488.800781 290.5 489.265625 290.730469 489.730469 291.007812 Z M 373.6875 351.203125 C 372.945312 368.3125 371.320312 384.914062 371.695312 401.609375 C 377.261719 387.652344 383.53125 374.015625 389.425781 360.199219 C 383.113281 359.085938 378.050781 356.210938 373.6875 351.203125 Z M 529.183594 281.269531 C 526.257812 279.832031 523.796875 278.347656 521.664062 276.492188 C 519.851562 274.917969 519.0625 275.378906 517.8125 277.097656 C 513.496094 282.894531 508.992188 288.597656 504.582031 294.347656 C 501.796875 298.011719 501.84375 297.917969 505.695312 300.328125 C 507.367188 301.351562 508.25 301.070312 509.550781 299.773438 C 515.769531 293.511719 521.664062 286.882812 529.183594 281.269531 Z M 548.304688 264.15625 C 546.078125 263.460938 544.546875 262.117188 543.570312 260.03125 C 542.179688 257.109375 541.4375 256.785156 538.375 258.222656 C 533.730469 260.449219 529.785156 263.648438 526.304688 267.402344 C 525.5625 268.191406 525.703125 268.5625 526.445312 269.210938 C 529.042969 271.4375 532.015625 273.109375 534.429688 275.566406 C 535.21875 276.355469 535.632812 275.75 536.097656 275.335938 C 540.089844 271.625 544.128906 267.960938 548.304688 264.15625 Z M 466.101562 287.066406 C 465.40625 291.195312 465.035156 294.902344 466.429688 298.566406 C 467.308594 300.886719 468.515625 303.019531 470.605469 304.550781 C 472 305.570312 473.484375 305.988281 475.15625 305.339844 C 478.730469 303.992188 481.328125 301.394531 483.972656 298.753906 C 484.53125 298.195312 484.207031 297.824219 483.648438 297.546875 C 477.941406 294.117188 472.183594 290.683594 466.101562 287.066406 Z M 418.710938 258.546875 C 414.304688 258.824219 410.03125 259.242188 405.761719 259.335938 C 398.660156 259.519531 398.707031 259.429688 398.289062 266.753906 C 398.242188 267.914062 398.523438 268.378906 399.589844 268.703125 C 403.441406 269.816406 407.25 270.929688 411.054688 272.179688 C 412.355469 272.597656 412.632812 271.996094 413.050781 271.066406 C 414.859375 266.894531 416.4375 262.628906 418.710938 258.546875 Z M 398.382812 275.707031 C 398.660156 278.253906 399.3125 280.433594 400.5625 282.382812 C 402.097656 284.703125 404.417969 284.980469 406.367188 283.03125 C 407.292969 282.105469 408.039062 281.039062 408.828125 279.972656 C 409.476562 279.136719 409.570312 278.625 408.222656 278.300781 C 404.972656 277.605469 401.816406 276.632812 398.382812 275.707031 Z M 430.964844 256.644531 C 429.992188 256.925781 429.621094 257.433594 429.25 257.898438 C 425.351562 262.8125 424.234375 269.027344 421.542969 274.546875 C 421.265625 275.148438 421.496094 275.472656 422.148438 275.707031 C 422.984375 276.03125 423.074219 275.378906 423.261719 274.964844 C 425.816406 268.980469 428.320312 263 430.964844 256.644531 Z M 552.902344 274.453125 C 552.855469 274.40625 552.808594 274.3125 552.761719 274.3125 C 552.667969 274.3125 552.578125 274.40625 552.484375 274.453125 C 552.53125 274.5 552.578125 274.59375 552.621094 274.59375 C 552.714844 274.546875 552.808594 274.5 552.902344 274.453125 Z M 552.902344 274.453125 " fill-opacity="1" fill-rule="nonzero"/></g><path fill="#fcfcfc" d="M 462.113281 361.589844 C 462.296875 361.402344 462.53125 361.265625 462.714844 361.078125 C 462.945312 361.449219 462.808594 361.726562 462.484375 361.960938 C 462.390625 361.867188 462.25 361.726562 462.113281 361.589844 Z M 462.113281 361.589844 " fill-opacity="1" fill-rule="nonzero"/><path fill="#fcfcfc" d="M 552.902344 274.453125 C 552.808594 274.5 552.714844 274.546875 552.621094 274.546875 C 552.578125 274.546875 552.53125 274.453125 552.484375 274.40625 C 552.578125 274.359375 552.667969 274.3125 552.761719 274.269531 C 552.761719 274.3125 552.855469 274.40625 552.902344 274.453125 Z M 552.902344 274.453125 " fill-opacity="1" fill-rule="nonzero"/><path fill="#fcfcfc" d="M 581.445312 538.320312 C 581.679688 538.179688 581.957031 538.085938 582.144531 538.320312 C 582.144531 538.320312 581.910156 538.597656 581.820312 538.738281 C 581.726562 538.550781 581.585938 538.457031 581.445312 538.320312 Z M 581.445312 538.320312 " fill-opacity="1" fill-rule="nonzero"/><path fill="#0e0d0d" d="M 512.984375 358.390625 C 513.726562 357.183594 514.421875 356.023438 515.117188 354.863281 C 518.785156 348.835938 522.777344 343.085938 527.789062 338.078125 C 528.8125 337.058594 528.53125 336.59375 527.605469 335.804688 C 525.191406 333.765625 522.777344 331.679688 520.457031 329.546875 C 518.691406 327.921875 517.207031 326.019531 516.464844 323.65625 C 516 322.21875 515.722656 320.734375 516.882812 319.527344 C 518.089844 318.230469 519.574219 318.554688 520.96875 318.972656 C 523.890625 319.898438 526.445312 321.476562 528.859375 323.285156 C 531.039062 324.90625 533.222656 326.53125 535.21875 328.339844 C 536.421875 329.40625 537.167969 329.546875 538.464844 328.433594 C 540.925781 326.207031 543.523438 324.121094 546.589844 322.726562 C 548.863281 321.660156 551.230469 320.917969 553.738281 322.03125 C 556.429688 323.191406 556.984375 325.511719 555.222656 327.875 C 554.527344 328.804688 553.550781 329.5 552.578125 330.101562 C 550.253906 331.539062 548.257812 333.347656 546.21875 335.109375 C 544.917969 336.269531 544.730469 336.964844 546.171875 338.261719 C 556.613281 347.816406 566.917969 357.460938 577.039062 367.386719 C 579.171875 369.472656 581.402344 371.558594 583.441406 373.785156 C 584.464844 374.851562 585.300781 374.945312 586.644531 374.480469 C 594.675781 371.511719 602.984375 369.9375 611.617188 370.261719 C 624.148438 370.679688 635.707031 379.90625 638.074219 391.6875 C 639.746094 399.847656 637.609375 407.453125 634.128906 414.78125 C 633.292969 416.496094 633.480469 417.375 634.917969 418.535156 C 638.261719 421.273438 641.507812 424.148438 644.386719 427.394531 C 645.546875 428.738281 646.570312 430.175781 646.660156 432.078125 C 646.847656 435.601562 643.921875 438.058594 640.441406 437.316406 C 638.585938 436.898438 637.007812 435.878906 635.566406 434.71875 C 632.96875 432.632812 630.460938 430.5 627.957031 428.273438 C 626.980469 427.394531 626.425781 427.070312 625.496094 428.414062 C 622.617188 432.449219 619.367188 436.15625 615.933594 439.773438 C 615.007812 440.75 615.050781 441.304688 616.027344 442.09375 C 618.070312 443.761719 619.878906 445.710938 620.945312 448.167969 C 621.503906 449.421875 621.875 450.8125 620.855469 451.878906 C 619.925781 452.898438 618.578125 452.898438 617.1875 452.574219 C 614.308594 451.925781 611.894531 450.441406 609.621094 448.679688 C 608.320312 447.613281 607.53125 447.75 606.324219 448.863281 C 598.15625 456.191406 589.523438 462.960938 579.589844 467.878906 C 577.640625 468.851562 575.832031 470.011719 573.601562 470.242188 C 571.003906 470.476562 570.445312 469.777344 571.1875 467.230469 C 571.5625 466.023438 572.210938 465.003906 572.90625 463.980469 C 576.710938 458.558594 581.355469 453.917969 586.460938 449.746094 C 589.941406 446.917969 593.238281 443.902344 596.671875 441.027344 C 597.738281 440.144531 598.019531 439.683594 596.71875 438.664062 C 584.648438 429.386719 572.582031 420.113281 560.375 411.023438 C 559.121094 410.097656 558.519531 410.652344 557.683594 411.347656 C 551.277344 416.542969 544.964844 421.921875 538.234375 426.746094 C 532.433594 430.917969 526.210938 433.699219 518.832031 433.003906 C 512.378906 432.402344 507.460938 429.339844 504.210938 423.730469 C 497.992188 413.109375 497.527344 401.839844 500.453125 390.203125 C 502.402344 382.503906 504.628906 374.898438 508.15625 367.757812 C 508.667969 366.691406 508.527344 366.042969 507.691406 365.160156 C 504.351562 361.820312 501.101562 358.390625 497.898438 354.957031 C 496.96875 353.9375 496.132812 352.824219 495.300781 351.664062 C 494.789062 350.921875 494.136719 350.136719 494.695312 349.160156 C 495.253906 348.140625 496.320312 348.046875 497.339844 348.09375 C 500.453125 348.234375 503.234375 349.4375 505.511719 351.480469 C 508.109375 353.613281 510.429688 355.976562 512.984375 358.390625 Z M 573.972656 380.417969 C 573.882812 380.183594 573.882812 380.140625 573.835938 380.09375 C 562.183594 368.222656 549.976562 356.953125 538.046875 345.40625 C 536.933594 344.339844 536.515625 345.082031 535.914062 345.777344 C 530.25 351.664062 525.886719 358.480469 521.800781 365.53125 C 521.246094 366.503906 521.476562 367.015625 522.21875 367.664062 C 525.097656 370.121094 527.929688 372.671875 530.761719 375.175781 C 537.863281 381.390625 545.011719 387.558594 552.066406 393.820312 C 553.226562 394.839844 553.96875 394.886719 555.128906 393.867188 C 556.984375 392.242188 558.980469 390.804688 560.976562 389.273438 C 565.15625 385.980469 569.566406 383.152344 573.972656 380.417969 Z M 517.347656 374.574219 C 514.050781 382.179688 511.777344 389.878906 510.105469 397.761719 C 508.992188 403 509.269531 408.007812 511.636719 412.832031 C 514.328125 418.304688 519.109375 419.882812 524.585938 417.285156 C 525.332031 416.914062 526.074219 416.496094 526.816406 416.03125 C 533.59375 411.625 539.535156 406.246094 545.890625 401.285156 C 547.238281 400.21875 546.171875 399.800781 545.519531 399.246094 C 539.164062 393.726562 532.804688 388.207031 526.445312 382.6875 C 523.425781 380.09375 520.457031 377.402344 517.347656 374.574219 Z M 585.484375 391.546875 C 584.789062 391.917969 584.1875 392.195312 583.582031 392.519531 C 578.011719 395.71875 572.722656 399.292969 567.613281 403.1875 C 566.082031 404.347656 566.453125 404.855469 567.753906 405.738281 C 571.558594 408.195312 575.367188 410.746094 579.171875 413.25 C 587.667969 418.8125 595.371094 425.398438 603.261719 431.660156 C 604.609375 432.726562 605.257812 432.632812 606.324219 431.335938 C 609.480469 427.625 612.265625 423.636719 615.238281 419.789062 C 616.167969 418.582031 615.980469 417.980469 614.867188 417.050781 C 605.121094 409.214844 595.558594 401.144531 586.554688 392.429688 C 586.179688 392.148438 585.808594 391.871094 585.484375 391.546875 Z M 621.921875 407.964844 C 623.222656 404.808594 624.289062 401.796875 624.429688 398.503906 C 624.707031 392.796875 622.109375 388.996094 617.046875 386.539062 C 610.457031 383.292969 604.050781 385.238281 597.136719 386.722656 C 605.351562 394.238281 613.425781 401.191406 621.921875 407.964844 Z M 621.921875 407.964844 " fill-opacity="1" fill-rule="nonzero"/><path fill="#0e0d0d" d="M 411.054688 548.011719 C 409.988281 541.101562 412.074219 534.933594 414.210938 528.8125 C 415.929688 523.851562 416.761719 518.796875 415.464844 513.601562 C 414.90625 511.46875 414.023438 509.476562 412.308594 508.039062 C 403.441406 500.292969 400.144531 489.953125 398.566406 478.777344 C 397.917969 474.277344 396.109375 470.105469 394.808594 465.746094 C 394.53125 464.863281 394.296875 463.980469 394.207031 463.054688 C 393.925781 460.597656 395.179688 458.324219 397.128906 457.488281 C 399.265625 456.609375 401.769531 457.210938 403.394531 459.207031 C 405.34375 461.570312 405.949219 464.398438 405.949219 467.414062 C 405.996094 471.773438 405.4375 476.132812 406.179688 480.539062 C 406.460938 482.347656 406.273438 484.246094 406.132812 486.101562 C 405.808594 492.175781 408.222656 496.953125 412.726562 500.941406 C 417.738281 505.441406 421.871094 510.542969 421.496094 517.777344 C 421.3125 521.394531 419.875 524.730469 418.339844 528.070312 C 415.648438 533.960938 412.863281 539.894531 415.09375 546.714844 C 415.511719 548.011719 415.648438 549.449219 415.789062 550.792969 C 415.972656 553.25 414.304688 554.550781 411.9375 553.808594 C 410.730469 553.4375 409.707031 552.695312 408.828125 551.859375 C 403.347656 546.667969 397.640625 541.660156 392.441406 536.1875 C 381.488281 524.683594 369.371094 514.53125 357.582031 503.910156 C 357.027344 503.398438 356.375 502.9375 355.820312 502.425781 C 355.125 501.777344 354.472656 501.175781 353.542969 502.242188 C 353.128906 502.703125 352.382812 503.167969 351.6875 502.566406 C 350.992188 501.960938 350.992188 501.175781 351.457031 500.476562 C 352.847656 498.160156 354.101562 495.75 355.726562 493.570312 C 365.890625 480.027344 377.261719 467.460938 389.144531 455.402344 C 390.398438 454.152344 391.882812 453.132812 393.324219 452.109375 C 393.695312 451.832031 394.296875 451.554688 394.808594 452.0625 C 395.179688 452.480469 394.996094 452.945312 394.855469 453.363281 C 394.296875 455.171875 393.277344 456.703125 392.210938 458.1875 C 387.335938 465.09375 381.394531 471.078125 375.546875 477.152344 C 368.769531 484.15625 363.292969 492.222656 356.375 499.457031 C 361.945312 501.453125 365.707031 505.441406 369.652344 509.195312 C 376.984375 516.199219 384.691406 522.738281 392.164062 529.554688 C 398.289062 535.121094 404 541.007812 409.476562 547.175781 C 409.660156 547.410156 409.941406 547.59375 410.171875 547.78125 C 410.3125 547.871094 410.542969 547.917969 411.054688 548.011719 Z M 411.054688 548.011719 " fill-opacity="1" fill-rule="nonzero"/><path fill="#0e0d0d" d="M 502.910156 567.210938 C 508.527344 567.441406 514.515625 569.714844 520.222656 572.542969 C 523.660156 574.210938 524.214844 577.96875 521.847656 580.9375 C 518.183594 585.480469 513.820312 589.238281 509.546875 593.179688 C 501.007812 601.109375 492.46875 609.039062 483.878906 616.921875 C 482.300781 618.40625 480.632812 619.796875 478.867188 621.050781 C 476.128906 622.953125 472.089844 621.929688 470.792969 618.917969 C 469.910156 616.921875 468.609375 615.390625 467.125 613.953125 C 460.765625 607.648438 453.851562 601.898438 447.910156 595.171875 C 446.886719 594.015625 445.632812 592.992188 446.097656 591.09375 C 446.285156 590.257812 446.050781 589.285156 445.914062 588.355469 C 445.449219 585.296875 446.238281 583.90625 449.300781 583.070312 C 453.105469 582.003906 456.914062 580.984375 460.765625 580.242188 C 469.398438 578.527344 477.289062 574.816406 485.226562 571.246094 C 490.609375 568.878906 496.132812 567.304688 502.910156 567.210938 Z M 449.253906 587.105469 C 451.296875 589.609375 453.757812 591.742188 452.316406 595.40625 C 452.039062 596.101562 452.6875 596.378906 453.0625 596.703125 C 460.71875 603.289062 467.171875 611.125 475.386719 617.109375 C 477.011719 618.269531 478.125 618.128906 479.378906 616.832031 C 481.511719 614.605469 483.648438 612.332031 485.832031 610.152344 C 496.414062 599.765625 507.597656 589.933594 517.902344 579.3125 C 518.320312 578.851562 519.15625 578.617188 519.0625 577.691406 C 515.953125 577.367188 513.121094 576.066406 510.246094 574.953125 C 502.679688 571.988281 495.390625 571.800781 487.917969 575.511719 C 479.191406 579.824219 470.046875 583.023438 460.441406 585.0625 C 456.679688 585.898438 452.96875 586.828125 449.253906 587.105469 Z M 449.253906 587.105469 " fill-opacity="1" fill-rule="nonzero"/><path fill="#0e0d0d" d="M 680.082031 252.332031 C 678.222656 252.238281 675.902344 252.519531 673.582031 253.351562 C 671.121094 254.234375 668.476562 254.140625 666.015625 253.585938 C 657.941406 251.777344 650.003906 249.597656 642.578125 245.792969 C 636.589844 242.734375 630.648438 242.640625 624.519531 245.332031 C 619.785156 247.417969 615.003906 249.410156 610.226562 251.3125 C 608.601562 251.960938 607.394531 253.167969 605.863281 253.910156 C 605.257812 254.234375 604.65625 254.605469 604.003906 254.882812 C 602.566406 255.484375 600.894531 256.089844 599.734375 254.605469 C 598.667969 253.261719 599.828125 251.914062 600.664062 250.894531 C 603.078125 247.789062 605.492188 244.679688 608.089844 241.714844 C 615.285156 233.320312 623.269531 225.667969 630.832031 217.597656 C 633.339844 214.910156 636.355469 213.054688 639.097656 210.875 C 642.714844 208 646.800781 208.695312 650.699219 210.457031 C 653.390625 211.664062 655.710938 213.519531 657.894531 215.511719 C 667.363281 224.183594 675.996094 233.691406 684.910156 242.917969 C 686.347656 244.402344 687.832031 245.980469 688.527344 247.972656 C 689.039062 249.363281 690.015625 250.757812 687.089844 251.359375 C 685 251.867188 682.914062 252.425781 680.082031 252.332031 Z M 681.007812 246.8125 C 681.242188 246.304688 680.917969 246.027344 680.683594 245.746094 C 671.957031 236.242188 663.09375 226.875 653.625 218.109375 C 651.628906 216.253906 649.492188 214.585938 646.941406 213.566406 C 644.203125 212.496094 639.746094 213.285156 638.769531 215.605469 C 637.84375 217.921875 636.078125 219.222656 634.5 220.84375 C 626.007812 229.425781 618.023438 238.46875 609.203125 246.90625 C 611.152344 246.722656 612.824219 246.074219 614.496094 245.332031 C 619.742188 242.828125 625.21875 241.109375 630.832031 239.625 C 635.335938 238.46875 639.234375 238.882812 643.273438 241.0625 C 655.203125 247.417969 667.921875 248.621094 681.007812 246.8125 Z M 681.007812 246.8125 " fill-opacity="1" fill-rule="nonzero"/><path fill="#0e0d0d" d="M 741.8125 369.84375 C 742.976562 366.320312 744.832031 363.675781 747.011719 361.265625 C 753.09375 354.449219 759.21875 347.722656 766.136719 341.742188 C 766.972656 341.046875 767.761719 340.304688 768.503906 339.515625 C 771.84375 336.082031 771.984375 332.976562 769.152344 329.175781 C 768.316406 328.0625 766.925781 327.828125 765.902344 327.085938 C 756.804688 320.640625 748.125 313.730469 740.5625 305.476562 C 738.84375 303.574219 737.359375 301.488281 736.199219 299.214844 C 735.917969 298.707031 735.5 298.058594 736.011719 297.5 C 736.523438 296.898438 737.171875 297.363281 737.730469 297.59375 C 740.328125 298.800781 742.929688 300.003906 745.015625 302 C 751.375 308.074219 758.292969 313.59375 765.300781 318.925781 C 769.246094 321.894531 771.660156 326.160156 774.628906 329.917969 C 776.671875 332.511719 776.117188 335.621094 774.769531 338.496094 C 773.285156 341.601562 771.148438 344.292969 768.640625 346.609375 C 760.890625 353.660156 753.648438 361.359375 745.574219 368.035156 C 744.597656 368.871094 743.53125 369.519531 741.8125 369.84375 Z M 741.8125 369.84375 " fill-opacity="1" fill-rule="nonzero"/><path fill="#0e0d0d" d="M 736.523438 368.683594 C 738.285156 367.386719 739.355469 365.160156 741.953125 364.835938 C 739.492188 367.523438 737.171875 370.308594 734.574219 372.8125 C 733.273438 374.0625 732.160156 375.316406 731.277344 376.894531 C 730.394531 378.421875 729.46875 380.183594 727.191406 379.210938 C 725.660156 378.5625 725.429688 376.613281 726.542969 374.296875 C 727.519531 372.300781 728.632812 370.355469 729.652344 368.359375 C 732.34375 363.164062 735.546875 358.296875 738.425781 353.195312 C 740.652344 349.207031 740.792969 345.589844 739.910156 341.789062 C 738.984375 337.890625 737.683594 333.949219 735.640625 330.378906 C 733.691406 326.949219 732.300781 323.285156 731.09375 319.527344 C 730.070312 316.421875 730.210938 313.3125 730.675781 310.160156 C 730.765625 309.652344 730.90625 309.09375 731.136719 308.628906 C 731.742188 307.332031 732.714844 305.941406 734.15625 306.21875 C 735.5 306.449219 735.410156 308.167969 735.363281 309.371094 C 735.222656 314.75 737.078125 319.621094 739.308594 324.398438 C 742 330.148438 745.480469 335.621094 746.269531 342.160156 C 746.546875 344.339844 746.640625 346.425781 746.222656 348.605469 C 745.804688 350.785156 745.0625 352.824219 745.0625 355.144531 C 745.0625 357.371094 743.625 359.222656 741.953125 360.617188 C 739.402344 362.75 737.777344 365.484375 736.199219 368.3125 C 736.011719 368.636719 735.316406 368.871094 735.917969 369.425781 C 735.78125 369.425781 735.6875 369.378906 735.546875 369.378906 C 735.59375 369.472656 735.59375 369.566406 735.640625 369.703125 C 735.734375 369.613281 735.78125 369.472656 735.871094 369.378906 C 736.011719 369.054688 736.246094 368.871094 736.523438 368.683594 Z M 736.523438 368.683594 " fill-opacity="1" fill-rule="nonzero"/><path fill="#0e0d0d" d="M 597.136719 92.390625 C 594.488281 92.066406 592.910156 90.394531 591.242188 89.003906 C 583.8125 82.835938 576.527344 76.484375 568.265625 71.382812 C 564.738281 69.203125 561.164062 67.300781 556.847656 67.535156 C 554.199219 67.671875 551.878906 68.183594 550.164062 70.457031 C 549.699219 71.105469 549.140625 71.476562 549.328125 72.402344 C 549.511719 73.191406 549.050781 73.933594 548.675781 74.582031 C 543.804688 83.160156 539.71875 92.15625 534.472656 100.550781 C 532.570312 103.566406 531.085938 106.8125 529.367188 109.871094 C 528.625 111.171875 529.136719 111.589844 530.390625 111.402344 C 537.769531 110.429688 545.335938 110.011719 551.832031 105.652344 C 554.898438 103.566406 557.960938 101.527344 560.929688 99.347656 C 563.667969 97.351562 566.6875 96.101562 569.84375 94.988281 C 573.046875 93.875 575.96875 95.035156 578.800781 96.238281 C 580.519531 96.980469 582.28125 97.539062 584.09375 97.863281 C 587.0625 98.324219 589.570312 97.027344 591.613281 95.035156 C 592.867188 93.828125 594.117188 92.945312 595.929688 93.410156 C 597.273438 93.78125 597.972656 94.800781 597.972656 96.191406 C 597.972656 98.09375 596.902344 99.347656 595.234375 100.089844 C 594.90625 100.226562 594.398438 100.179688 594.117188 100.414062 C 589.199219 105.003906 584.230469 102.222656 579.867188 99.949219 C 572.210938 95.960938 566.269531 96.425781 559.492188 103.796875 C 554.0625 109.734375 547.515625 113.398438 539.441406 114.324219 C 536.050781 114.695312 532.851562 114.835938 529.832031 112.933594 C 528.71875 112.238281 527.558594 112.378906 526.492188 113.398438 C 525.421875 114.464844 524.726562 113.90625 524.449219 112.609375 C 524.125 111.078125 524.496094 109.640625 525.191406 108.34375 C 530.761719 98.1875 535.960938 87.800781 542.550781 78.292969 C 544.269531 75.789062 545.847656 72.914062 548.722656 71.242188 C 549.464844 70.828125 549.421875 69.667969 550.070312 68.925781 C 552.808594 65.769531 556.152344 65.355469 560.140625 65.816406 C 564.273438 66.328125 567.707031 68.089844 571.28125 69.992188 C 580.195312 74.769531 587.296875 81.769531 594.769531 88.355469 C 596.253906 89.746094 596.53125 90.394531 597.136719 92.390625 Z M 597.136719 92.390625 " fill-opacity="1" fill-rule="nonzero"/><path fill="#0e0d0d" d="M 693.078125 181.796875 C 693.078125 183.515625 692.800781 184.953125 692.242188 186.296875 C 689.78125 192.046875 686.859375 197.519531 683.375 202.714844 C 681.984375 204.800781 680.082031 205.21875 678.457031 204.105469 C 676.878906 203.039062 676.644531 200.996094 678.039062 198.957031 C 680.128906 195.851562 682.402344 192.835938 684.582031 189.726562 C 686.488281 187.039062 687.691406 184.070312 687.738281 180.683594 C 687.738281 179.203125 687.089844 178.226562 686.023438 177.160156 C 676.183594 167.609375 665.179688 159.308594 656.316406 148.734375 C 655.25 147.4375 654.226562 146.089844 653.253906 144.652344 C 652.789062 143.957031 652.324219 143.121094 653.160156 142.378906 C 653.902344 141.730469 654.644531 142.195312 655.296875 142.566406 C 659.195312 144.699219 662.488281 147.574219 665.785156 150.542969 C 670.148438 154.484375 674.09375 158.796875 678.085938 163.15625 C 681.148438 166.496094 684.210938 169.835938 688.574219 171.734375 C 690.617188 172.617188 691.175781 174.890625 691.964844 176.835938 C 692.566406 178.507812 692.9375 180.269531 693.078125 181.796875 Z M 693.078125 181.796875 " fill-opacity="1" fill-rule="nonzero"/><path fill="#0e0d0d" d="M 397.964844 121.050781 C 397.269531 115.390625 397.222656 109.6875 397.917969 104.03125 C 398.242188 101.292969 398.242188 98.464844 400.144531 96.191406 C 400.519531 95.730469 400.519531 95.21875 400.5625 94.664062 C 401.074219 90.765625 403.117188 88.03125 406.503906 86.082031 C 412.679688 82.558594 419.269531 80.378906 426.230469 79.082031 C 426.976562 78.941406 427.71875 78.941406 428.367188 78.339844 C 430.550781 76.4375 432.359375 76.207031 434.867188 77.691406 C 438.066406 79.542969 439.507812 82.375 440.203125 86.082031 C 441.550781 93.226562 437.234375 97.445312 432.871094 101.527344 C 430.875 103.378906 427.625 103.75 425.164062 105.421875 C 421.035156 108.25 417.878906 111.773438 415.648438 116.226562 C 415.046875 117.386719 414.351562 118.542969 414.023438 119.796875 C 412.957031 124.527344 409.242188 126.242188 405.207031 127.542969 C 404.601562 127.726562 403.953125 127.867188 403.394531 127.542969 C 402.46875 126.984375 402.234375 127.449219 401.957031 128.238281 C 401.722656 129.023438 401.167969 129.582031 400.285156 129.582031 C 399.265625 129.582031 398.800781 128.886719 398.429688 128.050781 C 397.5 125.824219 397.640625 123.414062 397.964844 121.050781 Z M 402.605469 124.527344 C 403.675781 123.925781 403.8125 123.042969 403.859375 122.117188 C 403.90625 120.910156 404.464844 119.9375 405.066406 118.914062 C 410.914062 108.851562 420.199219 102.265625 428.972656 95.171875 C 430.964844 93.550781 432.5 91.832031 433.472656 89.46875 C 433.9375 88.308594 433.796875 87.429688 432.871094 86.59375 C 431.476562 85.386719 429.992188 84.183594 428.785156 82.835938 C 428.042969 82.003906 427.484375 81.910156 426.417969 82.09375 C 420.335938 83.023438 414.8125 85.664062 409.105469 87.800781 C 406.273438 88.820312 404.742188 91.324219 403.070312 93.6875 C 401.769531 95.542969 403.347656 97.027344 403.582031 98.652344 C 403.628906 98.882812 403.765625 99.113281 403.71875 99.347656 C 403.394531 105.421875 405.160156 111.589844 403.023438 117.664062 C 402.328125 119.75 402.46875 122.117188 402.605469 124.527344 Z M 402.605469 124.527344 " fill-opacity="1" fill-rule="nonzero"/><path fill="#fcfcfc" d="M 735.828125 369.332031 C 735.222656 368.777344 735.917969 368.546875 736.105469 368.222656 C 736.246094 368.359375 736.382812 368.5 736.523438 368.683594 C 736.289062 368.871094 736.011719 369.101562 735.78125 369.289062 Z M 735.828125 369.332031 " fill-opacity="1" fill-rule="nonzero"/><path fill="#fcfcfc" d="M 735.78125 369.289062 C 735.6875 369.378906 735.640625 369.519531 735.546875 369.613281 C 735.5 369.519531 735.5 369.425781 735.457031 369.289062 C 735.59375 369.289062 735.6875 369.332031 735.828125 369.332031 C 735.828125 369.332031 735.78125 369.289062 735.78125 369.289062 Z M 735.78125 369.289062 " fill-opacity="1" fill-rule="nonzero"/><g clip-path="url(#908dda5ed7)"><path fill="#000000" d="M 58.238281 448.859375 C 57.804688 416.488281 57.355469 383.011719 59.722656 350.113281 C 60.867188 334.191406 60.820312 317.921875 60.777344 302.191406 C 60.753906 294.765625 60.734375 287.089844 60.835938 279.550781 C 60.875 276.691406 61.054688 273.796875 61.371094 270.949219 C 65.171875 236.695312 69.289062 234.917969 105.621094 229.175781 C 125.289062 226.070312 145.332031 225.730469 164.914062 225.730469 C 167.683594 225.730469 170.445312 225.738281 173.199219 225.746094 C 191.914062 225.789062 211.277344 225.835938 230.21875 223.714844 C 243.988281 222.175781 257.925781 222.484375 271.40625 222.777344 C 280.867188 222.988281 290.648438 223.203125 300.289062 222.777344 C 305.148438 222.5625 309.804688 223.375 314.734375 224.230469 C 320.09375 225.164062 325.640625 226.125 331.503906 225.671875 C 345.738281 224.5625 353.945312 233.277344 356.601562 252.300781 C 360.570312 280.730469 360.667969 309.378906 360.785156 345.640625 C 360.800781 350.136719 360.8125 354.75 360.835938 359.492188 C 359.964844 472.785156 361.382812 599.308594 362.714844 696.875 C 362.757812 700.019531 362.867188 703.210938 362.972656 706.296875 C 363.308594 716.101562 363.65625 726.238281 361.90625 736.257812 C 359.253906 751.425781 351.925781 758.90625 338.847656 759.808594 C 329.328125 760.464844 319.601562 760.664062 310.195312 760.851562 C 298.878906 761.082031 287.179688 761.320312 275.730469 762.355469 C 235.898438 765.972656 195.449219 764.425781 156.332031 762.929688 C 140.359375 762.320312 123.847656 761.6875 107.597656 761.417969 C 98.054688 761.257812 88.804688 758.542969 79.859375 755.914062 C 78.738281 755.585938 77.617188 755.257812 76.496094 754.933594 C 69.910156 753.027344 66.183594 749.199219 64.765625 742.886719 C 63.011719 735.105469 61.546875 728.09375 61.34375 721.050781 C 60.824219 703.039062 59.996094 684.714844 59.195312 666.996094 C 57.242188 623.898438 55.222656 579.328125 57.503906 535.605469 C 59.011719 506.671875 58.617188 477.28125 58.238281 448.859375 Z M 373.992188 705.910156 C 373.777344 702.089844 373.558594 698.140625 373.507812 694.234375 C 372.480469 614.492188 371.75 533.410156 371.039062 455 C 370.5625 402.503906 370.070312 348.222656 369.496094 294.835938 C 369.308594 277.488281 367.140625 259.25 363.042969 240.621094 C 359.828125 226 349.828125 217.078125 334.875 215.503906 C 317.964844 213.726562 300.464844 213.136719 282.867188 213.753906 C 262.21875 214.480469 241.214844 215.351562 220.90625 216.191406 C 211.546875 216.578125 202.191406 216.96875 192.847656 217.339844 C 181.972656 217.777344 170.867188 217.957031 160.128906 218.128906 C 139.207031 218.460938 117.570312 218.808594 96.515625 221.082031 L 94.59375 221.289062 C 68.457031 224.097656 60.566406 224.945312 55.355469 256.449219 C 49.878906 289.539062 50.328125 323.375 50.765625 356.089844 C 50.863281 363.582031 50.96875 371.324219 50.996094 378.925781 C 51.113281 407.691406 50.542969 436.929688 49.992188 465.203125 C 49.199219 505.933594 48.382812 548.046875 49.585938 589.523438 C 50.03125 604.804688 50.40625 620.351562 50.769531 635.386719 C 51.472656 664.605469 52.203125 694.824219 53.472656 724.527344 C 54.179688 740.980469 56.5625 749.789062 61.972656 755.941406 C 68.078125 762.878906 78.234375 765.976562 91.613281 768.492188 C 101.792969 770.40625 112.136719 770.132812 122.136719 769.867188 C 130.351562 769.648438 138.847656 769.421875 147.054688 770.441406 C 162.683594 772.382812 178.417969 773.015625 194.066406 773.015625 C 209.019531 773.015625 223.894531 772.4375 238.523438 771.871094 C 253.582031 771.285156 269.179688 770.6875 284.46875 770.71875 C 302.421875 770.949219 320.242188 769.753906 335.300781 768.554688 C 353.75 767.085938 365.09375 758.671875 371 742.070312 C 375.324219 729.914062 374.648438 717.710938 373.992188 705.910156 " fill-opacity="1" fill-rule="nonzero"/></g><path fill="#000000" d="M 80.953125 386.230469 C 81.472656 361.261719 82.007812 335.441406 80.710938 310.03125 C 80.203125 300.027344 82.5625 292.363281 87.726562 287.253906 C 92.574219 282.457031 99.714844 280.039062 108.984375 280.039062 C 110.121094 280.039062 111.289062 280.070312 112.484375 280.148438 C 133.136719 281.398438 149.152344 281.296875 164.421875 279.820312 C 198.320312 276.546875 232.90625 276.722656 266.355469 276.890625 C 276.75 276.945312 287.496094 277 298.0625 276.949219 C 302.917969 276.921875 307.878906 277.597656 312.675781 278.246094 C 315.949219 278.6875 319.332031 279.144531 322.675781 279.382812 C 326.988281 279.691406 328.164062 281.828125 328.925781 285.929688 C 330.984375 297.003906 330.632812 308.40625 330.09375 319.132812 L 330.089844 319.195312 L 330.101562 319.253906 C 334.851562 349.945312 334.84375 381.359375 334.832031 411.742188 C 334.824219 434.996094 334.816406 459.039062 336.933594 482.664062 C 339.417969 510.371094 338.46875 538.875 337.546875 566.441406 C 337.132812 578.789062 336.710938 591.554688 336.597656 604.09375 C 336.546875 609.886719 336.492188 615.683594 336.433594 621.476562 C 336.265625 638.957031 336.09375 657.03125 336.03125 674.808594 C 335.945312 699.140625 330.066406 705.378906 306.085938 706.585938 C 292.808594 707.257812 279.320312 708.183594 266.277344 709.082031 C 232.753906 711.382812 198.09375 713.769531 163.882812 711.992188 C 155.476562 711.558594 146.980469 712.003906 138.765625 712.4375 C 130.058594 712.898438 121.050781 713.371094 112.125 712.796875 C 93.148438 711.574219 84.796875 707.75 82.214844 687.222656 C 78.542969 658.078125 77.789062 627.847656 79.914062 594.808594 C 82.992188 546.964844 83.4375 504.078125 81.269531 463.695312 C 79.878906 437.886719 80.425781 411.621094 80.953125 386.230469 Z M 78.480469 704.019531 C 83.332031 717.738281 91.5625 724.027344 104.371094 723.789062 C 109.554688 723.691406 114.871094 723.867188 120.011719 724.039062 C 124.148438 724.175781 128.347656 724.3125 132.550781 724.3125 C 137.996094 724.3125 143.449219 724.082031 148.78125 723.308594 C 168.28125 720.476562 188.164062 720.695312 207.394531 720.910156 C 221.382812 721.0625 235.851562 721.222656 250.078125 720.207031 L 250.121094 720.203125 C 258.710938 718.976562 267.574219 718.949219 276.148438 718.921875 C 291.980469 718.867188 308.351562 718.816406 324.078125 711.328125 C 340.296875 703.605469 345.398438 699.550781 343.699219 681.039062 C 343.011719 673.554688 342.851562 665.886719 342.699219 658.46875 L 342.679688 657.570312 C 342.121094 630.59375 342.617188 603.167969 343.089844 576.644531 C 343.78125 538.175781 344.496094 498.394531 342.023438 459.203125 C 340.261719 431.339844 340.214844 402.921875 340.167969 375.441406 C 340.117188 345.269531 340.0625 314.070312 337.75 283.429688 C 337.714844 282.964844 337.683594 282.515625 337.65625 282.066406 C 337.308594 276.832031 337.007812 272.308594 329.433594 271.777344 C 323.394531 271.351562 317.242188 270.640625 311.296875 269.953125 C 299.765625 268.617188 287.84375 267.242188 276.199219 267.882812 C 252.59375 269.183594 228.554688 269.6875 205.304688 270.171875 C 170.105469 270.914062 133.707031 271.675781 98.003906 275.214844 C 81.613281 276.84375 73.84375 284.382812 73.558594 298.945312 C 72.742188 340.070312 72.355469 384.261719 72.367188 434.042969 C 72.367188 447.953125 72.691406 462.089844 73.007812 475.761719 C 73.476562 496.167969 73.960938 517.269531 73.382812 537.988281 C 73.039062 550.472656 72.421875 563.164062 71.824219 575.4375 C 70.488281 602.84375 69.109375 631.1875 70.65625 659.132812 C 71.351562 671.691406 72.871094 688.144531 78.480469 704.019531 " fill-opacity="1" fill-rule="nonzero"/><path fill="#000000" d="M 184.261719 244.34375 C 185.117188 244.28125 186 244.21875 186.808594 244.097656 C 196.535156 242.632812 206.378906 242.230469 215.90625 242.230469 C 219.40625 242.230469 222.863281 242.285156 226.253906 242.359375 C 226.804688 242.375 227.394531 242.355469 227.964844 242.332031 C 231.375 242.222656 233.453125 242.359375 233.71875 245.265625 C 233.835938 246.535156 233.625 247.46875 233.066406 248.125 C 232.03125 249.347656 229.835938 249.515625 227.898438 249.660156 C 227.285156 249.707031 226.707031 249.75 226.160156 249.824219 C 216.941406 251.070312 207.539062 252.144531 198.445312 253.179688 C 195.003906 253.574219 191.5625 253.964844 188.121094 254.371094 C 187.070312 254.320312 185.941406 254.410156 184.851562 254.492188 C 182.398438 254.6875 180.082031 254.871094 178.675781 253.636719 C 177.78125 252.859375 177.296875 251.542969 177.191406 249.617188 C 176.949219 245.1875 179.699219 244.667969 184.261719 244.34375 Z M 168.578125 261.808594 C 170.011719 263.433594 172.4375 264.253906 175.808594 264.253906 C 176.558594 264.253906 177.347656 264.214844 178.183594 264.132812 C 196.953125 262.34375 217.082031 260.445312 237.121094 258.746094 C 242.046875 258.328125 242.878906 255.363281 243.402344 251.820312 C 244.640625 243.441406 244.808594 238.015625 242.027344 235.042969 C 239.179688 232.003906 233.445312 231.832031 224.507812 232.558594 C 222.964844 232.683594 221.390625 232.660156 219.210938 232.625 C 217.988281 232.605469 216.574219 232.585938 214.867188 232.582031 C 208.699219 231.441406 202.121094 232.683594 195.160156 233.992188 C 189.558594 235.046875 183.765625 236.136719 177.914062 236.007812 C 173.640625 235.914062 170.746094 236.742188 169.0625 238.542969 C 166.804688 240.953125 167.140625 244.617188 167.460938 248.15625 C 167.660156 250.328125 167.847656 252.382812 167.457031 254.089844 C 166.683594 257.488281 167.0625 260.085938 168.578125 261.808594 " fill-opacity="1" fill-rule="nonzero"/><path fill="#000000" d="M 236.691406 739.429688 C 216.371094 740.445312 199.933594 741.382812 184.964844 742.375 C 183.476562 742.472656 181.457031 742.875 180.273438 744.238281 C 179.570312 745.042969 179.261719 746.070312 179.355469 747.292969 C 179.660156 751.371094 184.078125 751.453125 185.53125 751.484375 C 190.570312 751.578125 195.664062 751.601562 200.707031 751.601562 C 203.519531 751.601562 206.316406 751.59375 209.078125 751.585938 C 211.882812 751.578125 214.691406 751.570312 217.5 751.570312 L 218.105469 751.570312 L 218.101562 750.3125 C 219.703125 750.316406 221.308594 750.328125 222.914062 750.34375 C 227.214844 750.382812 231.664062 750.425781 236.039062 750.230469 C 239.660156 750.066406 242.265625 747.59375 242.367188 744.214844 C 242.40625 742.921875 241.960938 741.785156 241.085938 740.921875 C 240.027344 739.890625 238.429688 739.351562 236.691406 739.429688 " fill-opacity="1" fill-rule="nonzero"/></svg>